<svg xmlns="http://www.w3.org/2000/svg" width="56" height="56" viewBox="0 0 56 56" fill="none">
    <g clip-path="url(#clip0_4199_34923)">
        <mask id="mask0_4199_34923" style="mask-type:alpha" maskUnits="userSpaceOnUse" x="0" y="0"
            width="56" height="56">
            <circle cx="28" cy="28" r="28" fill="#F2F3F7" />
        </mask>
        <g mask="url(#mask0_4199_34923)">
            <circle cx="28" cy="28" r="28" fill="#F2F3F7" />
            <g filter="url(#filter0_d_4199_34923)">
                <rect x="16.1" y="12.25" width="23.52" height="31.3784" rx="4.8" fill="white" />
            </g>
            <path opacity="0.8"
                d="M18.2 17.4646C18.2 16.9492 18.6178 16.5313 19.1333 16.5313H26.2266C26.7421 16.5313 27.16 16.9492 27.16 17.4646C27.16 17.9801 26.7421 18.398 26.2266 18.398H19.1333C18.6178 18.398 18.2 17.9801 18.2 17.4646Z"
                fill="#285E63" />
            <path opacity="0.6"
                d="M18.2 21.2333C18.2 20.7179 18.6178 20.3 19.1333 20.3H34.0666C34.5821 20.3 35 20.7179 35 21.2333C35 21.7488 34.5821 22.1667 34.0666 22.1667H19.1333C18.6178 22.1667 18.2 21.7488 18.2 21.2333Z"
                fill="#C7D3D7" />
            <path opacity="0.6"
                d="M18.2 25.4333C18.2 24.9179 18.6178 24.5 19.1333 24.5H34.0666C34.5821 24.5 35 24.9179 35 25.4333C35 25.9488 34.5821 26.3667 34.0666 26.3667H19.1333C18.6178 26.3667 18.2 25.9488 18.2 25.4333Z"
                fill="#C7D3D7" />
            <path opacity="0.6"
                d="M18.2 29.6333C18.2 29.1179 18.6178 28.7 19.1333 28.7H29.8666C30.3821 28.7 30.8 29.1179 30.8 29.6333C30.8 30.1488 30.3821 30.5667 29.8666 30.5667H19.1333C18.6178 30.5667 18.2 30.1488 18.2 29.6333Z"
                fill="#C7D3D7" />
        </g>
        <path fill-rule="evenodd" clip-rule="evenodd"
            d="M36.1 47.6C40.5183 47.6 44.1 44.0183 44.1 39.6C44.1 35.1817 40.5183 31.6 36.1 31.6C31.6817 31.6 28.1 35.1817 28.1 39.6C28.1 44.0183 31.6817 47.6 36.1 47.6ZM36.85 36.35C36.85 35.9358 36.5142 35.6 36.1 35.6C35.6858 35.6 35.35 35.9358 35.35 36.35V38.85H32.85C32.4358 38.85 32.1 39.1858 32.1 39.6C32.1 40.0142 32.4358 40.35 32.85 40.35H35.35V42.85C35.35 43.2642 35.6858 43.6 36.1 43.6C36.5142 43.6 36.85 43.2642 36.85 42.85V40.35H39.35C39.7642 40.35 40.1 40.0142 40.1 39.6C40.1 39.1858 39.7642 38.85 39.35 38.85H36.85V36.35Z"
            fill="#537E82" />
    </g>
    <defs>
        <filter id="filter0_d_4199_34923" x="-3.10003" y="2.65" width="61.92" height="69.7784"
            filterUnits="userSpaceOnUse" color-interpolation-filters="sRGB">
            <feFlood flood-opacity="0" result="BackgroundImageFix" />
            <feColorMatrix in="SourceAlpha" type="matrix"
                values="0 0 0 0 0 0 0 0 0 0 0 0 0 0 0 0 0 0 127 0" result="hardAlpha" />
            <feOffset dy="9.6" />
            <feGaussianBlur stdDeviation="9.6" />
            <feComposite in2="hardAlpha" operator="out" />
            <feColorMatrix type="matrix"
                values="0 0 0 0 0.0370486 0 0 0 0 0.087038 0 0 0 0 0.0916667 0 0 0 0.18 0" />
            <feBlend mode="normal" in2="BackgroundImageFix" result="effect1_dropShadow_4199_34923" />
            <feBlend mode="normal" in="SourceGraphic" in2="effect1_dropShadow_4199_34923"
                result="shape" />
        </filter>
        <clipPath id="clip0_4199_34923">
            <rect width="56" height="56" fill="white" />
        </clipPath>
    </defs>
</svg>