<svg xmlns="http://www.w3.org/2000/svg" width="56" height="56" fill="none">
    <mask id="a" width="57" height="56" x="0" y="0" maskUnits="userSpaceOnUse"
        style="mask-type:alpha">
        <path fill="#D9D9D9" fill-rule="evenodd"
            d="M28 56c15.464 0 28-12.536 28-28 0-1.427-.107-2.83-.313-4.2h.314V0H.058v23.8h.255A28.222 28.222 0 0 0 0 28c0 15.464 12.536 28 28 28Z"
            clip-rule="evenodd" />
    </mask>
    <g mask="url(#a)">
        <circle cx="28" cy="28" r="28" fill="#F2F3F7" />
        <g filter="url(#b)">
            <rect width="23.52" height="31.378" x="16.1" y="12.25" fill="#fff" rx="4.8" />
        </g>
        <path fill="#285E63"
            d="M18.2 17.465c0-.516.418-.934.933-.934h7.094a.933.933 0 1 1 0 1.867h-7.094a.933.933 0 0 1-.933-.933Z"
            opacity=".8" />
        <path fill="#C7D3D7"
            d="M18.2 21.233c0-.515.418-.933.933-.933h14.934a.933.933 0 1 1 0 1.867H19.133a.933.933 0 0 1-.933-.934ZM18.2 25.433c0-.515.418-.933.933-.933h14.934a.933.933 0 1 1 0 1.867H19.133a.933.933 0 0 1-.933-.934ZM18.2 29.633c0-.515.418-.933.933-.933h10.734a.933.933 0 1 1 0 1.867H19.133a.933.933 0 0 1-.933-.934Z"
            opacity=".6" />
    </g>
    <path fill="#59797F" fill-rule="evenodd"
        d="M36.1 31.475a8.125 8.125 0 1 0 0 16.25 8.125 8.125 0 0 0 0-16.25Zm-3.567 7.683a.625.625 0 0 0 0 .884l2.5 2.5a.625.625 0 0 0 .884-.884l-1.433-1.433h4.741a.625.625 0 1 0 0-1.25h-4.741l1.433-1.433a.625.625 0 1 0-.884-.884l-2.5 2.5Z"
        clip-rule="evenodd" />
    <defs>
        <filter id="b" width="61.92" height="69.778" x="-3.1" y="2.65"
            color-interpolation-filters="sRGB" filterUnits="userSpaceOnUse">
            <feFlood flood-opacity="0" result="BackgroundImageFix" />
            <feColorMatrix in="SourceAlpha" result="hardAlpha"
                values="0 0 0 0 0 0 0 0 0 0 0 0 0 0 0 0 0 0 127 0" />
            <feOffset dy="9.6" />
            <feGaussianBlur stdDeviation="9.6" />
            <feComposite in2="hardAlpha" operator="out" />
            <feColorMatrix
                values="0 0 0 0 0.0370486 0 0 0 0 0.087038 0 0 0 0 0.0916667 0 0 0 0.18 0" />
            <feBlend in2="BackgroundImageFix" result="effect1_dropShadow_4128_100868" />
            <feBlend in="SourceGraphic" in2="effect1_dropShadow_4128_100868" result="shape" />
        </filter>
    </defs>
</svg>