<svg xmlns="http://www.w3.org/2000/svg" width="224" height="225" viewBox="0 0 224 225" fill="none">
    <path
        d="M25 39.1569C25 38.6264 25.2107 38.1177 25.5858 37.7426L41.2426 22.0858C41.6177 21.7107 42.1264 21.5 42.6569 21.5H152C153.105 21.5 154 22.3954 154 23.5V150.31C154 150.85 153.781 151.367 153.394 151.744L137.77 166.934C137.397 167.297 136.897 167.5 136.376 167.5H27C25.8954 167.5 25 166.605 25 165.5V39.1569Z"
        stroke="url(#paint0_linear_3681_40136)" stroke-width="4" stroke-linecap="round" />
    <path
        d="M75.437 80.8633C76.5416 80.8633 77.437 81.7587 77.437 82.8633V106.5C77.437 107.604 76.5416 108.5 75.437 108.5H74.0323C73.3757 108.5 72.761 108.177 72.3875 107.637L60.0068 89.74C59.9786 89.6993 59.9324 89.6751 59.883 89.6751C59.7999 89.6751 59.7325 89.7425 59.7325 89.8256V106.5C59.7325 107.604 58.837 108.5 57.7325 108.5H56.7261C55.6215 108.5 54.7261 107.604 54.7261 106.5V82.8633C54.7261 81.7587 55.6215 80.8633 56.7261 80.8633H58.1568C58.8139 80.8633 59.4291 81.1861 59.8025 81.7268L72.1672 99.6326C72.197 99.6756 72.246 99.7013 72.2983 99.7013C72.3863 99.7013 72.4576 99.63 72.4576 99.542V82.8633C72.4576 81.7587 73.353 80.8633 74.4576 80.8633H75.437Z"
        fill="url(#paint1_linear_3681_40136)" />
    <path
        d="M84.1321 108.5C83.0275 108.5 82.1321 107.604 82.1321 106.5V82.8633C82.1321 81.7587 83.0275 80.8633 84.1321 80.8633H97.8366C98.9412 80.8633 99.8366 81.7587 99.8366 82.8633V83.06C99.8366 84.1646 98.9412 85.06 97.8366 85.06H89.1385C88.0339 85.06 87.1385 85.9554 87.1385 87.06V90.5629C87.1385 91.6674 88.0339 92.5629 89.1385 92.5629H96.6221C97.7267 92.5629 98.6221 93.4583 98.6221 94.5629V94.7596C98.6221 95.8642 97.7267 96.7596 96.6221 96.7596H89.1385C88.0339 96.7596 87.1385 97.655 87.1385 98.7596V106.5C87.1385 107.604 86.2431 108.5 85.1385 108.5H84.1321Z"
        fill="url(#paint2_linear_3681_40136)" />
    <path
        d="M104.423 85.06C103.319 85.06 102.423 84.1646 102.423 83.06V82.8633C102.423 81.7587 103.319 80.8633 104.423 80.8633H122.473C123.578 80.8633 124.473 81.7587 124.473 82.8633V83.06C124.473 84.1646 123.578 85.06 122.473 85.06H117.931C116.826 85.06 115.931 85.9554 115.931 87.06V106.5C115.931 107.604 115.036 108.5 113.931 108.5H112.965C111.861 108.5 110.965 107.604 110.965 106.5V87.06C110.965 85.9554 110.07 85.06 108.965 85.06H104.423Z"
        fill="url(#paint3_linear_3681_40136)" />
    <path
        d="M45 168V186.5C45 188.709 46.7909 190.5 49 190.5H158.376C159.417 190.5 160.418 190.094 161.164 189.368L169 181.75L176.788 174.178C177.563 173.425 178 172.39 178 171.31V44.5C178 42.2909 176.209 40.5 174 40.5H154.5M175.5 174H156M154.5 68H167.5"
        stroke="url(#paint4_linear_3681_40136)" stroke-width="4" stroke-linecap="round" />
    <path
        d="M67 192V202.5C67 204.709 68.7909 206.5 71 206.5H180.376C181.417 206.5 182.418 206.094 183.164 205.368L191 197.75L198.788 190.178C199.563 189.425 200 188.39 200 187.31V60.5C200 58.2909 198.209 56.5 196 56.5H178.5M197.5 190H178M178.5 84H189.5"
        stroke="url(#paint5_linear_3681_40136)" stroke-width="4" stroke-linecap="round" />
    <path
        d="M39.9717 66.9054L89.5002 40.2325L139.029 66.9054V124.016L89.5002 150.689L39.9717 124.016V66.9054Z"
        stroke="url(#paint6_linear_3681_40136)" stroke-width="4" />
    <defs>
        <linearGradient id="paint0_linear_3681_40136" x1="22.6326" y1="170.095" x2="192.048"
            y2="99.0667" gradientUnits="userSpaceOnUse">
            <stop stop-color="#11E982" />
            <stop offset="1" stop-color="#13C7C7" />
        </linearGradient>
        <linearGradient id="paint1_linear_3681_40136" x1="54.5334" y1="108.609" x2="97.6267"
            y2="57.1845" gradientUnits="userSpaceOnUse">
            <stop stop-color="#11E982" />
            <stop offset="1" stop-color="#13C7C7" />
        </linearGradient>
        <linearGradient id="paint2_linear_3681_40136" x1="54.5334" y1="108.609" x2="97.6267"
            y2="57.1845" gradientUnits="userSpaceOnUse">
            <stop stop-color="#11E982" />
            <stop offset="1" stop-color="#13C7C7" />
        </linearGradient>
        <linearGradient id="paint3_linear_3681_40136" x1="54.5334" y1="108.609" x2="97.6267"
            y2="57.1845" gradientUnits="userSpaceOnUse">
            <stop stop-color="#11E982" />
            <stop offset="1" stop-color="#13C7C7" />
        </linearGradient>
        <linearGradient id="paint4_linear_3681_40136" x1="44.6326" y1="191.095" x2="214.048"
            y2="120.067" gradientUnits="userSpaceOnUse">
            <stop stop-color="#11E982" />
            <stop offset="1" stop-color="#13C7C7" />
        </linearGradient>
        <linearGradient id="paint5_linear_3681_40136" x1="66.6326" y1="207.095" x2="236.048"
            y2="136.067" gradientUnits="userSpaceOnUse">
            <stop stop-color="#11E982" />
            <stop offset="1" stop-color="#13C7C7" />
        </linearGradient>
        <linearGradient id="paint6_linear_3681_40136" x1="37.687" y1="153.417" x2="168.541"
            y2="97.9694" gradientUnits="userSpaceOnUse">
            <stop stop-color="#11E982" />
            <stop offset="1" stop-color="#13C7C7" />
        </linearGradient>
    </defs>
</svg>